<?xml version="1.0" encoding="UTF-8"?>
<svg version="1.1" viewBox="0 0 812 812" width="1280" height="1280" xmlns="http://www.w3.org/2000/svg">
<path transform="translate(371)" d="m0 0h69l34 5 28 6 29 8 25 9 29 13 21 11 24 15 20 14 14 11 12 11 8 7 23 23 7 8 11 13 10 14 13 19 12 20 14 27 11 26 11 33 7 28 5 28 3 29 1 18v18l-2 32-3 23-6 30-6 23-10 30-10 23-10 21-12 21-16 24-9 12-8 10-11 13-3 4h-2l-2 4-20 20-8 7-12 10-13 10-18 13-20 12-17 10-25 12-26 10-28 9-30 7-37 6-25 2h-31l-19-1-41-6-24-5-25-7-31-11-25-11-19-10-20-12-16-11-21-16-13-11-12-11-22-22-9-11-11-13-14-19-12-19-12-21-13-27-10-26-7-21-8-32-6-35-2-16v-67l8-49 7-28 11-33 11-26 12-24 13-22 15-22 14-18 9-11 8-8 2-3h2l2-4 12-12 8-7 13-12 20-15 13-9 19-12 16-9 15-8 30-13 30-10 32-8 21-4z" fill="#4AF194"/>
<path transform="translate(223,236)" d="m0 0h18l19 4 17 6 17 9 11 8 13 12 9 10 7 8 9 9 14 10 13 6 15 4 14 1 19-3 16-7 14-10 16-16 4 1 5 5v2l4 2 7 7 6 5-1 6h-2l-2 4-14 14-13 10-16 8-17 6-17 4h-25l-22-6-24-11-9-6-4 1-10 9-8 7-16 15-10 9-13 12-10 9-15 14-8 7-12 11-15 14-12 11-15 14-8 7-15 14-10 9-13 12-10 9-13 12-12 11-3 1v2l-8 7-11 10-11 9-6 5-5-1-12-14-8-9 1-6 10-9 13-12 10-9 8-7 10-9 13-12 10-9 8-7 13-12 12-11 10-9 8-7 10-9 12-11 10-9 8-7 24-22 14-12 17-16 8-7 4-2 1-3 8-7 10-9 11-9v-5l-12-12-14-10-14-7-15-4h-18l-17 4-11 5-16 9-10 8-3 2h-5l-9-12-9-10-1-7 7-6 16-11 16-9 17-7 16-4z" fill="#C869EC"/>
<path transform="translate(392,193)" d="m0 0h11l13 4 11 7 6 5 10 14 4 12 1 13-4 13-6 11-7 8-9 6-11 5-8 2h-12l-15-5-10-7-9-10-6-10-3-9-1-5v-12l3-10 4-8 7-9 13-9 10-4z" fill="#C869EC"/>
<path transform="translate(284,410)" d="m0 0h6l7 7 9 12 9 15 8 20 2 6 3 19v11l-3 14-4 13-8 17-8 13-11 13-4 2v2l-5 4-5 1-12-12-5-6-5-4v-6l13-12 9-14 5-11 3-12v-21l-5-17-7-14-10-13-4-4 1-4 5-5 15-13z" fill="#C869EC"/>
<path transform="translate(550,478)" d="m0 0 11 1 6 4 4 2 6-6h8l3 1v11l-3 14-2 12-7 30-3 2h-6l-4-3-9 1-7 3h-10l-5-3-6-7-3-7v-17l6-18 7-11 8-7z" fill="#C869EC"/>
<path transform="translate(507,479)" d="m0 0 11 1-1 6-9 15-12 21-7 14-7 11-4 2h-13l-3-3-3-20-2-21-2-14v-9l2-2h10l4 1 2 5 1 36 1 2 4-2 6-13 5-12 8-15 3-2z" fill="#C869EC"/>
<path transform="translate(377,465)" d="m0 0h7l2 2-1 13h10l5 1 1 7-4 5-2 1-11 1-3 2-2 12-5 18v6l5 1 10 1v9l-5 4-9 2-10-1-6-4-3-4-1-4v-9l6-25 2-8-9-2-1-4 4-5 10-6 8-12z" fill="#C869EC"/>
<path transform="translate(434,393)" d="m0 0h16l13 2 6 4 3 4 3 9v13l-3 6-8 7-5 2-27 1-1-1v-42l1-4z" fill="#7010B7"/>
<path transform="translate(541,393)" d="m0 0 24 1 9 3 4 5 3 8 1 12-3 9-8 7-5 2h-26l-1-1v-45z" fill="#6F0FB7"/>
<path transform="translate(501,393)" d="m0 0h10l5 3 6 18 8 22v4l-7 1-7-2-4-6h-10l-4 2-5 5-3 1h-8l-1-4 7-18 7-20 3-5z" fill="#7010B8"/>
<path transform="translate(593,393)" d="m0 0h38l1 1v7l-1 3h-25l1 7h14l7 1v9l-7 1h-14l-1 7h26l1 8-3 3h-38l-1-3 1-13v-30z" fill="#7515BA"/>
<path transform="translate(422,480)" d="m0 0h13l4 1 1 5-3 11-5 23-2 10-3 13-4 5-3 1h-10l-3-2 1-7 4-17 9-42z" fill="#C869EC"/>
<path transform="translate(365,393)" d="m0 0h14l8 4 6 8 1 7-1 1h-8l-4-2-4-6-7-1-4 2-3 6v10l2 5 4 3 7-1 4-4 2-3 9-1 3 1v6l-6 8-10 5h-11l-9-4-5-5-4-7v-15l5-10 6-5z" fill="#7212B9"/>
<path transform="translate(556,493)" d="m0 0h6l4 4 1 3v9l-3 12-7 9-6 4-6-1-4-6v-10l6-15 7-8z" fill="#4AF194"/>
<path transform="translate(406,393)" d="m0 0 13 1v45l-1 1-13 1-1-1 1-31-1-13z" fill="#7111B8"/>
<path transform="translate(447,404)" d="m0 0h8l6 5 1 4v7l-3 7-7 3-7-1v-21z" fill="#4AF194"/>
<path transform="translate(554,404)" d="m0 0h8l4 2 3 7v8l-3 6-6 3h-6l-2-2v-19z" fill="#4AF194"/>
<path transform="translate(430,454)" d="m0 0 11 1 3 4v7l-3 4-3 1h-7l-6-2-1-4 3-9z" fill="#C869EC"/>
<path transform="translate(504,407)" d="m0 0 4 1 2 6v9l-1 1h-8v-7l2-9z" fill="#4AF194"/>
</svg>
